<svg width="308" height="33" viewBox="0 0 308 33" fill="none" xmlns="http://www.w3.org/2000/svg">
<path d="M0 8C0 3.58172 3.58172 0 8 0H86V16H8C3.58172 16 0 12.4183 0 8V8Z" fill="#DDDDDD"/>
<rect x="87" width="66" height="16" fill="#BFBFBF"/>
<rect x="154" width="56" height="16" fill="#757575"/>
<path d="M211 0H299C303.418 0 307 3.58172 307 8V8C307 12.4183 303.418 16 299 16H211V0Z" fill="#5A5A5A"/>
<path d="M80.1641 21.9297V29H79.2754V22.8477H79.2363L77.5176 23.9902V23.1016L79.2754 21.9297H80.1641ZM84.4121 29.0977C82.9229 29.0977 81.8975 28.2725 81.9023 27.125C81.8975 26.2119 82.5322 25.4551 83.3379 25.3281V25.2891C82.6348 25.1279 82.1709 24.4785 82.1758 23.707C82.1709 22.6279 83.1182 21.832 84.4121 21.832C85.7012 21.832 86.6484 22.6279 86.6582 23.707C86.6484 24.4785 86.1797 25.1279 85.4863 25.2891V25.3281C86.2871 25.4551 86.9219 26.2119 86.9316 27.125C86.9219 28.2725 85.8867 29.0977 84.4121 29.0977ZM82.7812 27.0762C82.7666 27.8184 83.3965 28.3213 84.4121 28.3262C85.4229 28.3213 86.0527 27.8184 86.0527 27.0762C86.0527 26.2949 85.3643 25.7188 84.4121 25.7188C83.4648 25.7188 82.7666 26.2949 82.7812 27.0762ZM83.0254 23.7754C83.0303 24.4883 83.6016 24.9717 84.4121 24.9766C85.2178 24.9717 85.7988 24.4883 85.7988 23.7754C85.7988 23.0674 85.2373 22.5889 84.4121 22.5938C83.5723 22.5889 83.0303 23.0674 83.0254 23.7754ZM88.4941 29.0586C88.1523 29.0537 87.8594 28.7705 87.8691 28.4238C87.8594 28.082 88.1523 27.7988 88.4941 27.7988C88.8408 27.7988 89.124 28.082 89.1191 28.4238C89.124 28.7705 88.8408 29.0537 88.4941 29.0586ZM92.5957 29.0977C91.3213 29.0977 90.3545 28.3115 90.3008 27.2227H91.1504C91.2139 27.8525 91.8291 28.3213 92.5957 28.3262C93.5137 28.3213 94.1777 27.6523 94.1777 26.7637C94.1777 25.8457 93.4893 25.167 92.5371 25.1621C91.9414 25.1523 91.4775 25.3379 91.2188 25.7969H90.3691L90.8672 21.9297H94.6953V22.7109H91.5996L91.3359 24.7812H91.4043C91.7217 24.5371 92.1953 24.3711 92.6934 24.3711C94.041 24.3711 95.0322 25.3672 95.0371 26.7441C95.0322 28.1113 94.0068 29.0977 92.5957 29.0977Z" fill="#262626"/>
<path d="M3.48828 21.9297V29H2.59961V22.8477H2.56055L0.841797 23.9902V23.1016L2.59961 21.9297H3.48828ZM7.67773 29.0977C6.40332 29.0977 5.43652 28.3115 5.38281 27.2227H6.23242C6.2959 27.8525 6.91113 28.3213 7.67773 28.3262C8.5957 28.3213 9.25977 27.6523 9.25977 26.7637C9.25977 25.8457 8.57129 25.167 7.61914 25.1621C7.02344 25.1523 6.55957 25.3379 6.30078 25.7969H5.45117L5.94922 21.9297H9.77734V22.7109H6.68164L6.41797 24.7812H6.48633C6.80371 24.5371 7.27734 24.3711 7.77539 24.3711C9.12305 24.3711 10.1143 25.3672 10.1191 26.7441C10.1143 28.1113 9.08887 29.0977 7.67773 29.0977Z" fill="#262626"/>
<path d="M295.89 27.5547V26.832L299.073 21.9297H300.157V26.7832H301.144V27.5547H300.157V29H299.317V27.5547H295.89ZM296.837 26.7832H299.317V23.043H299.229L296.837 26.7246V26.7832ZM304.62 29.0977C303.053 29.0977 302.145 27.7793 302.149 25.4648C302.145 23.1699 303.062 21.832 304.62 21.832C306.173 21.832 307.091 23.1699 307.091 25.4648C307.091 27.7793 306.188 29.0977 304.62 29.0977ZM302.999 25.4648C303.004 27.2959 303.595 28.3164 304.62 28.3164C305.641 28.3164 306.236 27.2959 306.231 25.4648C306.236 23.6338 305.636 22.5986 304.62 22.5938C303.604 22.5986 303.004 23.6338 302.999 25.4648Z" fill="#262626"/>
<path d="M147.664 29L147.654 28.3555L150.066 25.8164C150.901 24.9277 151.302 24.4492 151.307 23.7949C151.302 23.0674 150.696 22.5986 149.9 22.5938C149.056 22.5986 148.528 23.1309 148.523 23.9219H147.693C147.684 22.6719 148.65 21.832 149.93 21.832C151.214 21.832 152.122 22.6963 152.127 23.7949C152.122 24.5859 151.756 25.2012 150.506 26.4902L148.885 28.1602V28.2188H152.254V29H147.664ZM155.975 29.0977C154.568 29.0977 153.558 28.3457 153.514 27.2227H154.402C154.451 27.8965 155.12 28.3164 155.965 28.3164C156.897 28.3164 157.571 27.8135 157.576 27.0762C157.571 26.3047 156.956 25.7627 155.857 25.7578H155.281V24.9863H155.857C156.717 24.9863 157.317 24.5029 157.312 23.7754C157.317 23.0674 156.8 22.5986 155.994 22.5938C155.237 22.5986 154.549 23.0137 154.51 23.707H153.66C153.704 22.584 154.749 21.832 156.004 21.832C157.352 21.832 158.172 22.7158 158.162 23.7266C158.172 24.5322 157.703 25.1182 156.961 25.3281V25.377C157.884 25.5186 158.44 26.1777 158.436 27.0762C158.44 28.2383 157.386 29.0977 155.975 29.0977Z" fill="#262626"/>
<path d="M205.664 29L205.654 28.3555L208.066 25.8164C208.901 24.9277 209.302 24.4492 209.307 23.7949C209.302 23.0674 208.696 22.5986 207.9 22.5938C207.056 22.5986 206.528 23.1309 206.523 23.9219H205.693C205.684 22.6719 206.65 21.832 207.93 21.832C209.214 21.832 210.122 22.6963 210.127 23.7949C210.122 24.5859 209.756 25.2012 208.506 26.4902L206.885 28.1602V28.2188H210.254V29H205.664ZM213.838 29.0977C212.563 29.0977 211.597 28.3115 211.543 27.2227H212.393C212.456 27.8525 213.071 28.3213 213.838 28.3262C214.756 28.3213 215.42 27.6523 215.42 26.7637C215.42 25.8457 214.731 25.167 213.779 25.1621C213.184 25.1523 212.72 25.3379 212.461 25.7969H211.611L212.109 21.9297H215.938V22.7109H212.842L212.578 24.7812H212.646C212.964 24.5371 213.438 24.3711 213.936 24.3711C215.283 24.3711 216.274 25.3672 216.279 26.7441C216.274 28.1113 215.249 29.0977 213.838 29.0977Z" fill="#262626"/>
</svg>
