<svg width="24" height="24" viewBox="0 0 24 24" fill="none" xmlns="http://www.w3.org/2000/svg">
<circle cx="12" cy="12" r="9" fill="#595F72"/>
<path fill-rule="evenodd" clip-rule="evenodd" d="M12 20C16.4183 20 20 16.4183 20 12C20 7.58172 16.4183 4 12 4C7.58172 4 4 7.58172 4 12C4 16.4183 7.58172 20 12 20ZM12 22C17.5228 22 22 17.5228 22 12C22 6.47715 17.5228 2 12 2C6.47715 2 2 6.47715 2 12C2 17.5228 6.47715 22 12 22Z" fill="#595F72"/>
<path d="M8 9.625C8 10.1773 8.44772 10.625 9 10.625C9.55228 10.625 10 10.1773 10 9.625H8ZM12 13.125L11.3415 12.3724C11.1245 12.5623 11 12.8366 11 13.125H12ZM11 14C11 14.5523 11.4477 15 12 15C12.5523 15 13 14.5523 13 14H11ZM10 9.625C10 9.07149 10.2222 8.70171 10.5514 8.4456C10.9076 8.16858 11.4299 8 12 8V6C11.0701 6 10.0924 6.26892 9.32356 6.8669C8.52784 7.48579 8 8.42851 8 9.625H10ZM12 8C12.5701 8 13.0924 8.16858 13.4486 8.4456C13.7778 8.70171 14 9.07149 14 9.625H16C16 8.42851 15.4722 7.48579 14.6764 6.8669C13.9076 6.26892 12.9299 6 12 6V8ZM14 9.625C14 10.0327 13.686 10.5397 13.029 11.1146C12.7273 11.3786 12.4038 11.6134 12.1087 11.8187C11.8605 11.9913 11.5223 12.2142 11.3415 12.3724L12.6585 13.8776C12.7277 13.817 12.8895 13.7118 13.2507 13.4606C13.5649 13.2421 13.9602 12.9573 14.346 12.6198C15.064 11.9915 16 10.9673 16 9.625H14ZM11 13.125V14H13V13.125H11Z" fill="white"/>
<rect x="11" y="16" width="2" height="2" rx="1" fill="white"/>
</svg>
